<svg width="32" height="32" viewBox="0 0 32 32" fill="none" xmlns="http://www.w3.org/2000/svg">
<mask id="mask0" mask-type="alpha" maskUnits="userSpaceOnUse" x="1" y="2" width="29" height="28">
<path fill-rule="evenodd" clip-rule="evenodd" d="M2.49992 2.66675C1.85559 2.66675 1.33325 3.18584 1.33325 3.82617C1.33325 4.4665 1.85559 4.98559 2.49992 4.98559H6.21029L7.18053 9.80307C7.1857 9.83606 7.19227 9.8686 7.20017 9.90061L9.14894 19.5767C9.30913 20.377 9.74754 21.0968 10.3871 21.6085C11.0238 22.1178 11.8197 22.3896 12.6367 22.3769H23.9565C24.7735 22.3896 25.5693 22.1178 26.206 21.6085C26.8459 21.0966 27.2842 20.3774 27.4442 19.5767L27.4459 19.568L29.3126 9.84046C29.3777 9.50104 29.2871 9.15044 29.0655 8.8842C28.8438 8.61797 28.5143 8.46385 28.1666 8.46385H9.29042L8.31056 3.59862C8.20143 3.05676 7.72265 2.66675 7.16658 2.66675H2.49992ZM9.75743 10.7827H26.7564L25.1548 19.1287C25.1009 19.3941 24.9552 19.6324 24.7429 19.8022C24.5296 19.9728 24.2627 20.0635 23.9889 20.0583L23.9666 20.0581H12.6266L12.6042 20.0583C12.3305 20.0635 12.0636 19.9728 11.8503 19.8022C11.637 19.6316 11.4909 19.3918 11.4376 19.1249L9.75743 10.7827Z" fill="black"/>
<path d="M9.49992 27.0146C9.49992 25.7339 10.5446 24.6957 11.8332 24.6957C13.1219 24.6957 14.1666 25.7339 14.1666 27.0146C14.1666 28.2952 13.1219 29.3334 11.8332 29.3334C10.5446 29.3334 9.49992 28.2952 9.49992 27.0146Z" fill="black"/>
<path d="M22.3332 27.0146C22.3332 25.7339 23.3779 24.6957 24.6666 24.6957C25.9552 24.6957 26.9999 25.7339 26.9999 27.0146C26.9999 28.2952 25.9552 29.3334 24.6666 29.3334C23.3779 29.3334 22.3332 28.2952 22.3332 27.0146Z" fill="black"/>
</mask>
<g mask="url(#mask0)">
<rect x="-37.3333" y="-58.6667" width="166.667" height="145.333" fill="#12264B"/>
</g>
</svg>
