<svg width="32" height="32" viewBox="0 0 32 32" fill="none" xmlns="http://www.w3.org/2000/svg">
<rect width="32" height="32" rx="8" fill="#064946"/>
<path fill-rule="evenodd" clip-rule="evenodd" d="M23.1589 16.2649L23.1462 12.7253C23.1448 12.367 22.8536 12.0776 22.4956 12.0787C22.3613 12.0793 22.2367 12.1206 22.1334 12.1913L19.1161 13.9495C18.8079 14.1297 18.7041 14.5263 18.8841 14.8347C18.9447 14.9387 19.03 15.0196 19.128 15.0739L22.1888 16.8283C22.4986 17.0062 22.8937 16.8993 23.0717 16.5894C23.1301 16.4868 23.1581 16.3749 23.1576 16.2649H23.1589Z" fill="white"/>
<path fill-rule="evenodd" clip-rule="evenodd" d="M10.2323 20.419L14.2879 22.7435C14.6985 22.9785 15.2221 22.8363 15.4571 22.4253C15.5452 22.2712 15.5803 22.1008 15.5679 21.9361L15.5513 17.3168C15.549 16.8446 15.1645 16.4635 14.6924 16.4657C14.5335 16.4665 14.3851 16.5106 14.2577 16.5871L10.229 18.9351C9.82091 19.1721 9.68192 19.6956 9.91892 20.1042C9.99727 20.2394 10.1069 20.345 10.2334 20.4174L10.2323 20.419Z" fill="white"/>
<path fill-rule="evenodd" clip-rule="evenodd" d="M14.3891 6.1884L10.1376 8.66615C9.7073 8.91697 9.56139 9.46962 9.81196 9.90059C9.90609 10.0622 10.0426 10.1838 10.1993 10.2592L14.4149 12.6752C14.8463 12.9216 15.3958 12.7713 15.642 12.3395C15.725 12.194 15.7627 12.0352 15.7602 11.8789L15.7425 6.96665C15.7414 6.46916 15.3377 6.06701 14.8407 6.06812C14.6765 6.06839 14.5226 6.11302 14.3903 6.19006L14.3891 6.1884Z" fill="white"/>
<path fill-rule="evenodd" clip-rule="evenodd" d="M24.7914 6.79744L18.744 3.33164C18.1321 2.98077 17.3516 3.19335 17.0011 3.80613C16.8696 4.03589 16.8173 4.28976 16.8358 4.53532L16.8608 11.4228C16.8644 12.1271 17.4375 12.6955 18.1413 12.6919C18.3783 12.6908 18.5998 12.6249 18.7891 12.5109L24.7964 9.00995C25.4049 8.65658 25.612 7.87612 25.2587 7.26666C25.1419 7.06517 24.9785 6.90775 24.79 6.79993L24.7914 6.79744Z" fill="white"/>
<path fill-rule="evenodd" clip-rule="evenodd" d="M4.08331 10.4158L4.11294 18.5832C4.11598 19.41 4.78767 20.0779 5.61357 20.0748C5.92366 20.0735 6.21133 19.9781 6.44943 19.8157L13.4118 15.7579C14.1234 15.3422 14.3632 14.4276 13.9476 13.7153C13.8078 13.4756 13.6112 13.289 13.385 13.1635L6.3218 9.1154C5.6072 8.70466 4.69547 8.95132 4.28515 9.66665C4.14948 9.90307 4.08553 10.1614 4.08664 10.4158H4.08331Z" fill="white"/>
<path fill-rule="evenodd" clip-rule="evenodd" d="M19.1549 28.6041L27.1514 23.9441C27.9607 23.4721 28.2348 22.4328 27.7636 21.6229C27.587 21.3186 27.33 21.09 27.0354 20.9481L19.1067 16.4036C18.2952 15.9402 17.262 16.2229 16.7988 17.0352C16.6426 17.3088 16.5712 17.6076 16.5764 17.9016L16.6097 27.141C16.6119 28.0762 17.3711 28.8328 18.3055 28.8306C18.6145 28.8297 18.9041 28.7463 19.153 28.6008L19.1549 28.6041Z" fill="white"/>
</svg>
