<svg width="25" height="24" viewBox="0 0 25 24" fill="none" xmlns="http://www.w3.org/2000/svg">
<mask id="mask0" mask-type="alpha" maskUnits="userSpaceOnUse" x="4" y="4" width="17" height="17">
<path fill-rule="evenodd" clip-rule="evenodd" d="M6.552 11.4C6.552 8.40261 8.93939 6 11.851 6C14.7627 6 17.1501 8.40261 17.1501 11.4C17.1501 12.8568 16.5861 14.1732 15.672 15.1414C15.6466 15.162 15.622 15.1839 15.5983 15.2073C15.5669 15.2382 15.538 15.2706 15.5116 15.3044C14.558 16.2322 13.2664 16.8 11.851 16.8C8.93939 16.8 6.552 14.3974 6.552 11.4ZM16.2562 17.3013C15.0338 18.2411 13.509 18.8 11.851 18.8C7.80496 18.8 4.552 15.4718 4.552 11.4C4.552 7.32814 7.80496 4 11.851 4C15.8971 4 19.1501 7.32814 19.1501 11.4C19.1501 13.0798 18.5964 14.6331 17.6618 15.8783L20.4375 18.6985C20.825 19.0921 20.8199 19.7253 20.4263 20.1127C20.0327 20.5001 19.3995 20.4951 19.0121 20.1014L16.2562 17.3013Z" fill="#8B7F7F"/>
</mask>
<g mask="url(#mask0)">
<rect x="0.630859" width="23.6214" height="24" fill="#656380"/>
</g>
</svg>
