<svg width="105" height="105" viewBox="0 0 105 105" fill="none" xmlns="http://www.w3.org/2000/svg">
<circle cx="52.5" cy="52.5" r="44.5" fill="#F0F5FC"/>
<path d="M103.458 44.8292C103.702 46.5066 103.866 48.2099 103.948 49.9349L103.449 49.9587C103.489 50.8007 103.509 51.6479 103.509 52.5C103.509 53.3521 103.489 54.1993 103.449 55.0413L103.948 55.0651C103.866 56.7901 103.702 58.4934 103.458 60.1708L102.963 60.099C102.718 61.7888 102.393 63.4522 101.991 65.085L102.476 65.2045C102.065 66.8755 101.574 68.5149 101.009 70.1183L100.537 69.952C99.9709 71.557 99.3288 73.1257 98.615 74.6536L99.0681 74.8652C98.3417 76.4202 97.542 77.9333 96.6734 79.4001L96.2432 79.1453C95.378 80.6064 94.4437 82.0211 93.445 83.3847L93.8484 83.6802C92.8364 85.062 91.7588 86.3919 90.6204 87.6652L90.2476 87.3319C89.1179 88.5955 87.9275 89.8028 86.6813 90.9491L87.0198 91.3171C85.7614 92.4746 84.4466 93.5706 83.0799 94.6003L82.779 94.201C81.4279 95.219 80.0257 96.1716 78.577 97.0542L78.8372 97.4812C77.3802 98.3689 75.8766 99.1865 74.3309 99.9293L74.1144 99.4786C72.5936 100.21 71.0317 100.867 69.4332 101.448L69.6039 101.918C68.0047 102.498 66.3693 103.002 64.7019 103.424L64.5791 102.939C62.9489 103.352 61.2878 103.687 59.5999 103.939L59.6737 104.433C57.9971 104.683 56.2944 104.853 54.5696 104.937L54.5451 104.438C53.7035 104.479 52.8565 104.5 52.0047 104.5C51.1529 104.5 50.3059 104.479 49.4643 104.438L49.4398 104.937C47.715 104.853 46.0123 104.683 44.3357 104.433L44.4095 103.939C42.7217 103.687 41.0606 103.352 39.4303 102.939L39.3075 103.424C37.6402 103.002 36.0047 102.498 34.4056 101.918L34.5762 101.448C32.9777 100.867 31.4159 100.21 29.8951 99.4786L29.6785 99.9293C28.1328 99.1865 26.6292 98.3689 25.1722 97.4812L25.4324 97.0542C23.9837 96.1716 22.5815 95.219 21.2304 94.201L20.9295 94.6003C19.5629 93.5706 18.248 92.4746 16.9897 91.3171L17.3282 90.9491C16.0819 89.8028 14.8916 88.5955 13.7618 87.3319L13.3891 87.6652C12.2506 86.3919 11.173 85.062 10.161 83.6802L10.5644 83.3847C9.56572 82.0211 8.63148 80.6064 7.76624 79.1453L7.33602 79.4001C6.46743 77.9333 5.66771 76.4202 4.94138 74.8652L5.3944 74.6536C4.68069 73.1257 4.03853 71.557 3.47227 69.952L3.00075 70.1183C2.43506 68.5149 1.94439 66.8755 1.53302 65.2045L2.01852 65.085C1.61655 63.4522 1.29101 61.7889 1.04596 60.0991L0.551137 60.1708C0.307876 58.4934 0.143194 56.7901 0.0609853 55.0651L0.560418 55.0413C0.520294 54.1993 0.5 53.3521 0.5 52.5C0.5 51.6479 0.520294 50.8007 0.560418 49.9587L0.0609854 49.9349C0.143194 48.2099 0.307876 46.5066 0.551136 44.8292L1.04596 44.901C1.29101 43.2112 1.61655 41.5478 2.01852 39.915L1.53302 39.7955C1.94439 38.1245 2.43506 36.4851 3.00075 34.8817L3.47227 35.048C4.03853 33.443 4.68069 31.8743 5.3944 30.3464L4.94138 30.1348C5.66771 28.5798 6.46743 27.0667 7.33602 25.5999L7.76624 25.8547C8.63148 24.3936 9.56572 22.9789 10.5644 21.6153L10.161 21.3198C11.173 19.938 12.2506 18.6081 13.3891 17.3348L13.7618 17.6681C14.8916 16.4045 16.0819 15.1972 17.3282 14.0509L16.9897 13.6829C18.248 12.5254 19.5629 11.4294 20.9295 10.3997L21.2304 10.799C22.5815 9.78101 23.9837 8.82838 25.4324 7.94576L25.1722 7.51877C26.6292 6.6311 28.1328 5.81354 29.6785 5.07071L29.8951 5.52137C31.4159 4.79049 32.9777 4.13268 34.5762 3.55244L34.4056 3.08245C36.0047 2.50196 37.6402 1.99834 39.3076 1.57598L39.4303 2.06067C41.0606 1.64773 42.7217 1.31323 44.4095 1.06139L44.3357 0.566866C46.0123 0.316695 47.7151 0.147304 49.4398 0.0627383L49.4643 0.562138C50.3059 0.520874 51.1529 0.5 52.0047 0.5C52.8566 0.5 53.7035 0.520874 54.5451 0.562139L54.5696 0.0627386C56.2944 0.147304 57.9971 0.316695 59.6737 0.566867L59.6 1.06139C61.2878 1.31323 62.9489 1.64773 64.5791 2.06067L64.7019 1.57598C66.3693 1.99834 68.0047 2.50196 69.6039 3.08245L69.4333 3.55244C71.0317 4.13268 72.5936 4.79049 74.1144 5.52137L74.3309 5.07071C75.8766 5.81354 77.3802 6.6311 78.8372 7.51877L78.577 7.94576C80.0257 8.82838 81.4279 9.78101 82.779 10.799L83.0799 10.3997C84.4466 11.4294 85.7614 12.5254 87.0198 13.6829L86.6813 14.0509C87.9275 15.1972 89.1178 16.4045 90.2476 17.6681L90.6204 17.3348C91.7588 18.6081 92.8364 19.938 93.8484 21.3198L93.445 21.6153C94.4437 22.9789 95.378 24.3936 96.2432 25.8547L96.6734 25.5999C97.542 27.0667 98.3417 28.5798 99.0681 30.1348L98.615 30.3464C99.3288 31.8743 99.9709 33.443 100.537 35.048L101.009 34.8817C101.574 36.4851 102.065 38.1245 102.476 39.7955L101.991 39.915C102.393 41.5478 102.718 43.2111 102.963 44.9009L103.458 44.8292Z" stroke="#4C97D2" stroke-dasharray="5 5"/>
<path d="M54.5599 43.1354C54.3241 43.1354 54.098 43.042 53.9314 42.8757C53.7647 42.7095 53.671 42.484 53.671 42.2489V33.3841C53.671 31.7383 53.0155 30.16 51.8486 28.9962C50.6817 27.8325 49.0991 27.1787 47.4489 27.1787C45.7987 27.1787 44.216 27.8325 43.0492 28.9962C41.8823 30.16 41.2267 31.7383 41.2267 33.3841V42.2489C41.2267 42.484 41.1331 42.7095 40.9664 42.8757C40.7997 43.042 40.5736 43.1354 40.3379 43.1354C40.1021 43.1354 39.876 43.042 39.7093 42.8757C39.5426 42.7095 39.449 42.484 39.449 42.2489V33.3841C39.449 31.2681 40.2918 29.2388 41.7921 27.7426C43.2924 26.2463 45.3272 25.4058 47.4489 25.4058C49.5706 25.4058 51.6054 26.2463 53.1056 27.7426C54.6059 29.2388 55.4488 31.2681 55.4488 33.3841V42.2489C55.4488 42.484 55.3551 42.7095 55.1884 42.8757C55.0217 43.042 54.7956 43.1354 54.5599 43.1354Z" fill="#F0EEEE"/>
<path d="M56.3375 74.1625H26.1157L27.8935 38.703H54.5598L56.3375 74.1625Z" fill="#4C97D2"/>
<path d="M63.4486 74.1625H56.3376L54.5598 38.703H61.6708L63.4486 74.1625Z" fill="#2A6A9D"/>
<path d="M77.6707 74.1625H70.5597L70.4486 72.7297V72.7286L68.782 51.1141H75.893L77.5319 72.3552V72.3563L77.6707 74.1625Z" fill="#EBC273"/>
<path d="M70.5598 74.1625H47.449L49.2267 51.1141H68.782L70.5598 74.1625Z" fill="#FFD480"/>
<path d="M59.893 67.9572H58.1153C56.937 67.9558 55.8073 67.4884 54.9741 66.6575C54.1409 65.8265 53.6722 64.6998 53.6709 63.5247V56.4328C53.6709 56.1976 53.7645 55.9722 53.9312 55.8059C54.0979 55.6397 54.324 55.5463 54.5598 55.5463C54.7955 55.5463 55.0216 55.6397 55.1883 55.8059C55.355 55.9722 55.4487 56.1976 55.4487 56.4328V63.5247C55.4494 64.2298 55.7306 64.9058 56.2306 65.4044C56.7305 65.9029 57.4083 66.1834 58.1153 66.1842H59.893C60.6 66.1834 61.2778 65.9029 61.7778 65.4044C62.2777 64.9058 62.5589 64.2298 62.5597 63.5247V56.4328C62.5597 56.1976 62.6533 55.9722 62.82 55.8059C62.9867 55.6397 63.2128 55.5463 63.4485 55.5463C63.6843 55.5463 63.9104 55.6397 64.0771 55.8059C64.2438 55.9722 64.3374 56.1976 64.3374 56.4328V63.5247C64.3361 64.6998 63.8674 65.8265 63.0342 66.6575C62.201 67.4884 61.0714 67.9558 59.893 67.9572Z" fill="#F9F9F9"/>
<path d="M35.0048 43.1354C34.7691 43.1354 34.543 43.042 34.3763 42.8757C34.2096 42.7095 34.116 42.484 34.116 42.2489V33.3841C34.116 31.2681 34.9588 29.2388 36.4591 27.7426C37.9594 26.2463 39.9942 25.4058 42.1159 25.4058C44.2376 25.4058 46.2724 26.2463 47.7726 27.7426C49.2729 29.2388 50.1158 31.2681 50.1158 33.3841V42.2489C50.1158 42.484 50.0221 42.7095 49.8554 42.8757C49.6887 43.042 49.4626 43.1354 49.2269 43.1354C48.9911 43.1354 48.765 43.042 48.5983 42.8757C48.4316 42.7095 48.338 42.484 48.338 42.2489V33.3841C48.338 31.7383 47.6825 30.16 46.5156 28.9962C45.3487 27.8325 43.7661 27.1787 42.1159 27.1787C40.4656 27.1787 38.883 27.8325 37.7161 28.9962C36.5493 30.16 35.8937 31.7383 35.8937 33.3841V42.2489C35.8937 42.484 35.8001 42.7095 35.6334 42.8757C35.4667 43.042 35.2406 43.1354 35.0048 43.1354Z" fill="white"/>
</svg>
