<svg width="32" height="32" viewBox="0 0 32 32" fill="none" xmlns="http://www.w3.org/2000/svg">
<mask id="mask0" mask-type="alpha" maskUnits="userSpaceOnUse" x="5" y="2" width="22" height="25">
<path fill-rule="evenodd" clip-rule="evenodd" d="M12.3332 8.6667C12.3332 6.56802 14.0345 4.8667 16.1332 4.8667C18.2319 4.8667 19.9332 6.56802 19.9332 8.6667C19.9332 10.7654 18.2319 12.4667 16.1332 12.4667C14.0345 12.4667 12.3332 10.7654 12.3332 8.6667ZM16.1332 2.8667C12.93 2.8667 10.3332 5.46345 10.3332 8.6667C10.3332 11.87 12.93 14.4667 16.1332 14.4667C19.3365 14.4667 21.9332 11.87 21.9332 8.6667C21.9332 5.46345 19.3365 2.8667 16.1332 2.8667ZM11.3332 17.2667C9.79495 17.2667 8.31969 17.8778 7.23198 18.9655C6.14427 20.0532 5.5332 21.5284 5.5332 23.0667V25.4667C5.5332 26.019 5.98092 26.4667 6.5332 26.4667C7.08549 26.4667 7.5332 26.019 7.5332 25.4667V23.0667C7.5332 22.0589 7.93356 21.0923 8.6462 20.3797C9.35884 19.6671 10.3254 19.2667 11.3332 19.2667H20.9332C21.941 19.2667 22.9076 19.6671 23.6202 20.3797C24.3328 21.0923 24.7332 22.0589 24.7332 23.0667V25.4667C24.7332 26.019 25.1809 26.4667 25.7332 26.4667C26.2855 26.4667 26.7332 26.019 26.7332 25.4667V23.0667C26.7332 21.5284 26.1221 20.0532 25.0344 18.9655C23.9467 17.8778 22.4715 17.2667 20.9332 17.2667H11.3332Z" fill="black"/>
</mask>
<g mask="url(#mask0)">
<rect x="-55" y="-39" width="125" height="109" fill="#12264B"/>
</g>
</svg>
